<svg xmlns="http://www.w3.org/2000/svg" version="1.1" xmlns:xlink="http://www.w3.org/1999/xlink" width="512" height="512" x="0" y="0" viewBox="0 0 512 512" style="enable-background:new 0 0 512 512" xml:space="preserve" class="hovered-paths"><g><g fill-rule="evenodd" clip-rule="evenodd"><path fill="#157d7e" d="M318.03 417.54h-66.08c5.61 15.99.65 34.84-12.76 46.46h91.56c-13.4-11.62-18.36-30.47-12.72-46.46z" opacity="1" data-original="#157d7e" class=""></path><path fill="#00989f" d="M318.03 417.54h-42.49c5.64 15.99.68 34.84-12.76 46.46h67.97c-13.4-11.62-18.36-30.47-12.72-46.46z" opacity="1" data-original="#00989f" class=""></path><path fill="#157d7e" d="M210.45 464H359.5c2.1 0 3.83 1.73 3.83 3.83v18.51c0 2.1-1.73 3.83-3.83 3.83H210.45c-2.1 0-3.83-1.73-3.83-3.83v-18.51c.01-2.1 1.74-3.83 3.83-3.83z" opacity="1" data-original="#157d7e" class=""></path><path fill="#00989f" d="M250.68 464H359.5c2.1 0 3.83 1.73 3.83 3.83v18.51c0 2.1-1.73 3.83-3.83 3.83H250.68c-2.1 0-3.83-1.73-3.83-3.83v-18.51c0-2.1 1.73-3.83 3.83-3.83z" opacity="1" data-original="#00989f" class=""></path><path fill="#157d7e" d="M118.89 136.51h332.19c10.46 0 19.05 8.56 19.05 19.05v242.93c0 10.46-8.59 19.05-19.05 19.05H118.89c-10.49 0-19.05-8.59-19.05-19.05V155.56c.01-10.48 8.57-19.05 19.05-19.05z" opacity="1" data-original="#157d7e" class=""></path><path fill="#00989f" d="M118.89 136.51h332.19c10.46 0 19.05 8.56 19.05 19.05v242.93c0 5.53-2.41 10.54-6.24 14.03-42.49-15.05-85.92-34.95-128.78-59.7-102.73-59.33-183-135.24-230.09-210.3 3.47-3.68 8.4-6.01 13.87-6.01z" opacity="1" data-original="#00989f" class=""></path><path fill="#bad2d6" d="M146.28 168.86h277.4c8.08 0 14.68 6.58 14.68 14.66v187c0 8.08-6.6 14.68-14.68 14.68h-277.4c-8.08 0-14.65-6.6-14.65-14.68v-187c-.01-8.09 6.57-14.66 14.65-14.66z" opacity="1" data-original="#bad2d6"></path><path fill="#e3f3f4" d="M146.28 168.86h277.4c8.08 0 14.68 6.58 14.68 14.66v187c0 8.08-6.6 14.68-14.68 14.68h-19.11a757.478 757.478 0 0 1-72.37-36.79c-84.78-48.95-153.33-109.9-198.85-171.81 2.5-4.62 7.37-7.74 12.93-7.74z" opacity="1" data-original="#e3f3f4"></path><path fill="#499cb9" d="M164.16 226.71h241.63v117.58H164.16z" opacity="1" data-original="#499cb9"></path><path fill="#498daa" d="m284.98 310.42 20.75 8.11v30.44c0 7.06-5.78 12.84-12.84 12.84h-15.82c-7.06 0-12.84-5.78-12.84-12.84v-30.44z" opacity="1" data-original="#498daa" class="hovered-path"></path><path fill="#ffecca" d="M191.23 322.92c30.95-11.06 64.54-8.33 93.74 7.57V214.04c-28.46-23.64-68.03-20.98-93.74 6.35zM378.72 322.92c-30.95-11.06-64.52-8.33-93.74 7.57V214.04c28.46-23.64 68.03-20.98 93.74 6.35z" opacity="1" data-original="#ffecca"></path><path fill="#ffddaf" d="M378.72 322.92c-30.81-11-64.21-8.36-93.32 7.34 14.68-36.37 47.96-81.5 90.51-112.71.94.91 1.87 1.84 2.81 2.83zM191.23 322.92c30.81-11 64.23-8.36 93.35 7.34-14.71-36.37-47.96-81.5-90.51-112.71-.96.91-1.9 1.84-2.83 2.83v102.54z" opacity="1" data-original="#ffddaf"></path><path fill="#498daa" d="M450.21 260.64h19.67c5.5 0 10.01 4.37 10.01 9.69v189.18L459.4 488.4l-19.22-28.89V270.34c-.01-5.33 4.5-9.7 10.03-9.7z" opacity="1" data-original="#498daa" class="hovered-path"></path><path fill="#499cb9" d="M459.02 260.64h10.86c5.5 0 10.01 4.37 10.01 9.69v189.18L459.4 488.4l-.37-.54V260.64z" opacity="1" data-original="#499cb9"></path><path fill="#ce2027" d="M450.21 260.64h19.67c5.5 0 10.01 4.37 10.01 9.69v23.73h-39.71v-23.73c-.01-5.32 4.5-9.69 10.03-9.69z" opacity="1" data-original="#ce2027"></path><path fill="#ed2026" d="M459.02 260.64h10.86c5.5 0 10.01 4.37 10.01 9.69v23.73h-20.86v-33.42z" opacity="1" data-original="#ed2026"></path><path fill="#ffddaf" d="m479.21 460.49-19.81 27.92-18.57-27.89c5.44-3.66 12.08-5.78 19.22-5.78 7.11-.01 13.71 2.12 19.16 5.75z" opacity="1" data-original="#ffddaf"></path><path fill="#ffecca" d="m479.21 460.49-19.81 27.92-.37-.54v-33.14h1.02c7.11 0 13.71 2.13 19.16 5.76z" opacity="1" data-original="#ffecca"></path><path fill="#fdb614" d="M440.17 294.06h39.71v19.79h-39.71z" opacity="1" data-original="#fdb614" class=""></path><path fill="#ffe400" d="M459.02 294.06h20.86v19.79h-20.86z" opacity="1" data-original="#ffe400" class=""></path><path fill="#fdb614" d="M138.28 40.16c59.81 0 108.28 48.5 108.28 108.28 0 59.81-48.47 108.31-108.28 108.31S29.97 208.26 29.97 148.45c0-59.78 48.5-108.29 108.31-108.29z" opacity="1" data-original="#fdb614" class=""></path><path fill="#ffe400" d="M138.28 40.16c59.81 0 108.28 48.5 108.28 108.28 0 18.11-4.45 35.18-12.3 50.17-19.79 21.51-48.16 35.01-79.71 35.01-59.81 0-108.28-48.5-108.28-108.31 0-18.08 4.45-35.15 12.3-50.15 19.79-21.5 48.16-35 79.71-35z" opacity="1" data-original="#ffe400" class=""></path><path fill="#157d7e" d="M81.02 136.06h114.49v45.75c0 16.7-114.49 16.7-114.49 0z" opacity="1" data-original="#157d7e" class=""></path><path fill="#00989f" d="M94.06 136.06h101.45v45.98c-30.05 7.63-101.45 4.88-101.45-8.31z" opacity="1" data-original="#00989f" class=""></path><path fill="#157d7e" d="m59.17 132.29 79.11-29.71 79.09 29.71L138.28 162z" opacity="1" data-original="#157d7e" class=""></path><path fill="#00989f" d="m159.97 110.75 57.4 21.54-75.6 28.4-57.37-21.54z" opacity="1" data-original="#00989f" class=""></path></g><path d="m56.73 125.77 79.11-29.71a6.81 6.81 0 0 1 4.85 0l79.11 29.71c6.04 2.27 6.01 10.83 0 13.07l-17.29 6.49v36.48c0 10.52-17.63 16.5-40.22 18.51-15.19 1.33-32.85 1.33-48.05 0-22.59-2.01-40.22-7.99-40.22-18.51v-36.48l-17.29-6.49c-6.07-2.27-5.98-10.83 0-13.07zm131.81 24.8-47.85 17.97c-1.62.6-3.34.57-4.85 0l-47.82-17.97v31.24c0 1.5 12.02 3.2 27.44 4.56 14.34 1.28 31.27 1.28 45.64 0 15.39-1.36 27.44-3.06 27.44-4.56zm-50.26-40.53-59.27 22.25 59.27 22.25 59.24-22.25zm0-76.88c56.81 0 104.63 41.27 113.73 96.35h199.08c14.34 0 26.05 11.71 26.05 26.05v99.69c5.78 2.69 9.75 8.5 9.75 15.08v189.18c0 1.7-.6 3.26-1.59 4.48l-20.21 28.46c-2.86 4.02-8.87 3.83-11.51-.2l-19.22-28.88a6.92 6.92 0 0 1-1.16-3.86h-.03v-34.98H323.36c-1.05 5.33-.79 10.89.65 16.16 1.67 6.04 4.88 11.71 9.47 16.3h26.02c2.95 0 5.67 1.22 7.63 3.2l.03-.03c1.96 1.96 3.17 4.68 3.17 7.65v18.51c0 5.92-4.9 10.83-10.83 10.83H210.45c-5.92 0-10.83-4.9-10.83-10.83v-18.51c0-5.95 4.9-10.83 10.83-10.83h26.02c4.62-4.59 7.82-10.26 9.47-16.3 1.45-5.27 1.73-10.83.68-16.16H118.89c-14.34 0-26.05-11.71-26.05-26.05V254.46c-41.7-17.92-69.87-59.1-69.87-106.02 0-63.66 51.62-115.28 115.31-115.28zm115.18 110.36c.25 6.15.06 12.25-.65 18.34h170.87c11.93 0 21.69 9.72 21.69 21.66v70.84c1.53-.45 3.17-.68 4.85-.68h12.93v-98.11c0-6.63-5.44-12.05-12.05-12.05zm-3.18 32.31c-1.25 5.24-2.89 10.32-4.85 15.25 14.2.77 27.78 5.7 39.54 14.15 14.71-10.57 31.69-15.22 48.39-14.09 18.37 1.25 36.34 9.47 50.43 24.46a6.83 6.83 0 0 1 1.87 4.11h20.13c3.88 0 7 3.12 7 7v117.58c0 3.88-3.12 7-7 7h-93.2c-1.16 9.89-9.61 17.52-19.7 17.52h-15.82c-10.06 0-18.51-7.62-19.7-17.52h-93.2c-3.85 0-7-3.12-7-7V262.2c-6.04 1.02-12.25 1.53-18.57 1.56v106.75c0 4.22 3.49 7.68 7.68 7.68h277.4c4.22 0 7.68-3.46 7.68-7.68v-187c0-4.2-3.46-7.68-7.68-7.68zM238.77 205a115.633 115.633 0 0 1-40.54 41.95v66.44c26.65-7.17 54.57-4.96 79.74 5.92V217.39c-11.45-8.62-25.11-13.04-39.2-12.39zm-54.54 49.21c-4.22 1.84-8.59 3.46-13.07 4.79v78.29h86.06v-10.43c-20.55-5.5-43.2-4.79-63.41 2.58-4.82 1.81-9.58-1.73-9.58-6.52zm-59.61 8.73c-6.09-.71-12.02-1.9-17.77-3.52v139.07c0 6.6 5.44 12.05 12.05 12.05h314.28v-20.55a21.31 21.31 0 0 1-9.5 2.21h-277.4c-11.93 0-21.66-9.75-21.66-21.69zm85.27-186.09c-39.54-39.57-103.69-39.57-143.23 0-39.57 39.54-39.57 103.69 0 143.23 39.54 39.57 103.69 39.57 143.23 0 39.57-39.54 39.57-103.69 0-143.23zm237.28 210.21h25.74v-16.72c0-1.59-1.45-2.66-3.03-2.69h-19.67c-1.59 0-3.03 1.11-3.03 2.69v16.72zm25.74 14.01h-25.74v5.78h25.74zm0 19.78h-25.74v128.89a42.059 42.059 0 0 1 25.74 0zm-4.11 142.27c-5.73-1.9-12.1-1.87-17.8.08l8.59 12.87zm-83.08-229.41v89.21c0 4.79-4.76 8.33-9.58 6.52-20.21-7.37-42.83-8.08-63.41-2.58v10.43h86.06V233.71zm-87 97.91c-3.51 1.45-6.97 3.12-10.35 4.96a7.079 7.079 0 0 1-6.8 0c-3.37-1.84-6.83-3.52-10.35-4.96v17.35c0 3.2 2.67 5.84 5.84 5.84h15.82c3.2 0 5.84-2.64 5.84-5.84zm-6.74-12.3c25.17-10.89 53.09-13.1 79.74-5.92v-90.17c-11.28-11.08-25.17-17.21-39.29-18.14-13.97-.96-28.2 3.09-40.45 12.3zm17.23 105.22h-48.44c1.5 11.2-.94 22.73-6.75 32.46h61.91c-5.78-9.72-8.25-21.26-6.72-32.46zM356.32 471h-142.7v12.16h142.7z" fill="#000000" opacity="1" data-original="#000000" class=""></path></g></svg>